<mxfile host="app.diagrams.net" agent="Mozilla/5.0 (Windows NT 10.0; Win64; x64) AppleWebKit/537.36 (KHTML, like Gecko) Chrome/131.0.0.0 Safari/537.36" version="26.0.2">
  <diagram name="第 1 页" id="s_ATahlNXTWTJwpcebI7">
    <mxGraphModel dx="696" dy="405" grid="1" gridSize="10" guides="1" tooltips="1" connect="1" arrows="1" fold="1" page="1" pageScale="1" pageWidth="827" pageHeight="1169" math="0" shadow="0">
      <root>
        <mxCell id="0" />
        <mxCell id="1" parent="0" />
        <mxCell id="IQcd2XxN9O5bWGnMx5c1-4" value="移动宽带&lt;div&gt;无公网&lt;/div&gt;" style="rounded=1;whiteSpace=wrap;html=1;" vertex="1" parent="1">
          <mxGeometry x="280" y="250" width="80" height="40" as="geometry" />
        </mxCell>
        <mxCell id="IQcd2XxN9O5bWGnMx5c1-5" value="联通宽带&lt;div&gt;有公网&lt;/div&gt;" style="rounded=1;whiteSpace=wrap;html=1;" vertex="1" parent="1">
          <mxGeometry x="280" y="310" width="80" height="50" as="geometry" />
        </mxCell>
        <mxCell id="IQcd2XxN9O5bWGnMx5c1-11" style="edgeStyle=orthogonalEdgeStyle;rounded=0;orthogonalLoop=1;jettySize=auto;html=1;exitX=0;exitY=0.5;exitDx=0;exitDy=0;entryX=1;entryY=0.5;entryDx=0;entryDy=0;" edge="1" parent="1" source="IQcd2XxN9O5bWGnMx5c1-7" target="IQcd2XxN9O5bWGnMx5c1-5">
          <mxGeometry relative="1" as="geometry">
            <Array as="points">
              <mxPoint x="420" y="305" />
              <mxPoint x="420" y="335" />
            </Array>
          </mxGeometry>
        </mxCell>
        <mxCell id="IQcd2XxN9O5bWGnMx5c1-15" style="edgeStyle=orthogonalEdgeStyle;rounded=0;orthogonalLoop=1;jettySize=auto;html=1;exitX=0.5;exitY=1;exitDx=0;exitDy=0;entryX=0.5;entryY=0;entryDx=0;entryDy=0;" edge="1" parent="1" source="IQcd2XxN9O5bWGnMx5c1-7" target="IQcd2XxN9O5bWGnMx5c1-14">
          <mxGeometry relative="1" as="geometry" />
        </mxCell>
        <mxCell id="IQcd2XxN9O5bWGnMx5c1-26" style="edgeStyle=orthogonalEdgeStyle;rounded=0;orthogonalLoop=1;jettySize=auto;html=1;exitX=1;exitY=0.5;exitDx=0;exitDy=0;entryX=0;entryY=0.5;entryDx=0;entryDy=0;" edge="1" parent="1" source="IQcd2XxN9O5bWGnMx5c1-7" target="IQcd2XxN9O5bWGnMx5c1-23">
          <mxGeometry relative="1" as="geometry" />
        </mxCell>
        <mxCell id="IQcd2XxN9O5bWGnMx5c1-7" value="软路由" style="rounded=1;whiteSpace=wrap;html=1;" vertex="1" parent="1">
          <mxGeometry x="450" y="280" width="100" height="40" as="geometry" />
        </mxCell>
        <mxCell id="IQcd2XxN9O5bWGnMx5c1-10" style="edgeStyle=orthogonalEdgeStyle;rounded=0;orthogonalLoop=1;jettySize=auto;html=1;exitX=0;exitY=0.5;exitDx=0;exitDy=0;entryX=1.019;entryY=0.558;entryDx=0;entryDy=0;entryPerimeter=0;" edge="1" parent="1" source="IQcd2XxN9O5bWGnMx5c1-7" target="IQcd2XxN9O5bWGnMx5c1-4">
          <mxGeometry relative="1" as="geometry">
            <Array as="points">
              <mxPoint x="420" y="305" />
              <mxPoint x="420" y="272" />
            </Array>
          </mxGeometry>
        </mxCell>
        <mxCell id="IQcd2XxN9O5bWGnMx5c1-12" value="&lt;font style=&quot;font-size: 8px;&quot;&gt;双拨，链路聚合&lt;/font&gt;" style="text;html=1;align=center;verticalAlign=middle;resizable=0;points=[];autosize=1;strokeColor=none;fillColor=none;" vertex="1" parent="1">
          <mxGeometry x="350" y="290" width="80" height="30" as="geometry" />
        </mxCell>
        <mxCell id="IQcd2XxN9O5bWGnMx5c1-13" value="WiFi路由器" style="rounded=1;whiteSpace=wrap;html=1;" vertex="1" parent="1">
          <mxGeometry x="250" y="470" width="90" height="40" as="geometry" />
        </mxCell>
        <mxCell id="IQcd2XxN9O5bWGnMx5c1-19" style="edgeStyle=orthogonalEdgeStyle;rounded=0;orthogonalLoop=1;jettySize=auto;html=1;exitX=0.5;exitY=1;exitDx=0;exitDy=0;entryX=0.5;entryY=0;entryDx=0;entryDy=0;" edge="1" parent="1" source="IQcd2XxN9O5bWGnMx5c1-14" target="IQcd2XxN9O5bWGnMx5c1-16">
          <mxGeometry relative="1" as="geometry" />
        </mxCell>
        <mxCell id="IQcd2XxN9O5bWGnMx5c1-14" value="2.5G交换机" style="rounded=1;whiteSpace=wrap;html=1;" vertex="1" parent="1">
          <mxGeometry x="355" y="400" width="90" height="40" as="geometry" />
        </mxCell>
        <mxCell id="IQcd2XxN9O5bWGnMx5c1-16" value="nas" style="rounded=1;whiteSpace=wrap;html=1;" vertex="1" parent="1">
          <mxGeometry x="355" y="470" width="90" height="40" as="geometry" />
        </mxCell>
        <mxCell id="IQcd2XxN9O5bWGnMx5c1-17" value="电脑" style="rounded=1;whiteSpace=wrap;html=1;" vertex="1" parent="1">
          <mxGeometry x="470" y="470" width="90" height="40" as="geometry" />
        </mxCell>
        <mxCell id="IQcd2XxN9O5bWGnMx5c1-18" style="edgeStyle=orthogonalEdgeStyle;rounded=0;orthogonalLoop=1;jettySize=auto;html=1;exitX=0.5;exitY=1;exitDx=0;exitDy=0;entryX=0.469;entryY=0.044;entryDx=0;entryDy=0;entryPerimeter=0;" edge="1" parent="1" source="IQcd2XxN9O5bWGnMx5c1-14">
          <mxGeometry relative="1" as="geometry">
            <mxPoint x="293.81000000000006" y="471.76" as="targetPoint" />
            <Array as="points">
              <mxPoint x="293.6" y="450" />
            </Array>
          </mxGeometry>
        </mxCell>
        <mxCell id="IQcd2XxN9O5bWGnMx5c1-20" style="edgeStyle=orthogonalEdgeStyle;rounded=0;orthogonalLoop=1;jettySize=auto;html=1;exitX=0.5;exitY=1;exitDx=0;exitDy=0;entryX=0.551;entryY=-0.031;entryDx=0;entryDy=0;entryPerimeter=0;" edge="1" parent="1" source="IQcd2XxN9O5bWGnMx5c1-14">
          <mxGeometry relative="1" as="geometry">
            <mxPoint x="516.1899999999999" y="468.76" as="targetPoint" />
            <Array as="points">
              <mxPoint x="516.6" y="450" />
            </Array>
          </mxGeometry>
        </mxCell>
        <mxCell id="IQcd2XxN9O5bWGnMx5c1-22" value="openclash" style="rounded=1;whiteSpace=wrap;html=1;" vertex="1" parent="1">
          <mxGeometry x="585" y="240" width="60" height="40" as="geometry" />
        </mxCell>
        <mxCell id="IQcd2XxN9O5bWGnMx5c1-23" value="ad" style="rounded=1;whiteSpace=wrap;html=1;" vertex="1" parent="1">
          <mxGeometry x="585" y="310" width="70" height="30" as="geometry" />
        </mxCell>
        <mxCell id="IQcd2XxN9O5bWGnMx5c1-25" style="edgeStyle=orthogonalEdgeStyle;rounded=0;orthogonalLoop=1;jettySize=auto;html=1;exitX=1;exitY=0.5;exitDx=0;exitDy=0;entryX=-0.008;entryY=0.585;entryDx=0;entryDy=0;entryPerimeter=0;" edge="1" parent="1" source="IQcd2XxN9O5bWGnMx5c1-7" target="IQcd2XxN9O5bWGnMx5c1-22">
          <mxGeometry relative="1" as="geometry" />
        </mxCell>
        <mxCell id="IQcd2XxN9O5bWGnMx5c1-27" value="pcdn" style="rounded=1;whiteSpace=wrap;html=1;" vertex="1" parent="1">
          <mxGeometry x="577.5" y="390" width="85" height="30" as="geometry" />
        </mxCell>
      </root>
    </mxGraphModel>
  </diagram>
</mxfile>
